<svg width="210" height="210" viewBox="0 0 210 210" fill="none" xmlns="http://www.w3.org/2000/svg">
<circle cx="105" cy="105" r="103" fill="#1CA9DF" stroke="#1CA9DF" stroke-width="4"/>
<path d="M147 122.213V86.6576C146.998 85.0988 146.587 83.5678 145.807 82.2183C145.027 80.8687 143.906 79.7481 142.556 78.9687L111.444 61.1909C110.093 60.4107 108.56 60 107 60C105.44 60 103.907 60.4107 102.556 61.1909L71.4444 78.9687C70.0945 79.7481 68.9732 80.8687 68.1932 82.2183C67.4131 83.5678 67.0016 85.0988 67 86.6576V122.213C67.0016 123.772 67.4131 125.303 68.1932 126.652C68.9732 128.002 70.0945 129.123 71.4444 129.902L102.556 147.68C103.907 148.46 105.44 148.871 107 148.871C108.56 148.871 110.093 148.46 111.444 147.68L142.556 129.902C143.906 129.123 145.027 128.002 145.807 126.652C146.587 125.303 146.998 123.772 147 122.213Z" stroke="white" stroke-width="6" stroke-linecap="round" stroke-linejoin="round"/>
<path d="M68.2002 82.0353L107 104.48L145.8 82.0353" stroke="white" stroke-width="6" stroke-linecap="round" stroke-linejoin="round"/>
<path d="M107 149.235V104.435" stroke="white" stroke-width="6" stroke-linecap="round" stroke-linejoin="round"/>
</svg>
