<svg width="210" height="210" viewBox="0 0 210 210" fill="none" xmlns="http://www.w3.org/2000/svg">
<circle cx="105" cy="105" r="103" fill="#1CA9DF" stroke="#1CA9DF" stroke-width="4"/>
<path d="M108 59V150.667" stroke="white" stroke-width="6" stroke-linecap="round" stroke-linejoin="round"/>
<path d="M128.833 75.6667H97.5833C93.7156 75.6667 90.0063 77.2031 87.2714 79.938C84.5365 82.673 83 86.3823 83 90.25C83 94.1178 84.5365 97.8271 87.2714 100.562C90.0063 103.297 93.7156 104.833 97.5833 104.833H118.417C122.284 104.833 125.994 106.37 128.729 109.105C131.464 111.84 133 115.549 133 119.417C133 123.284 131.464 126.994 128.729 129.729C125.994 132.464 122.284 134 118.417 134H83" stroke="white" stroke-width="6" stroke-linecap="round" stroke-linejoin="round"/>
</svg>
