<svg width="210" height="210" viewBox="0 0 210 210" fill="none" xmlns="http://www.w3.org/2000/svg">
<circle cx="105" cy="105" r="103" fill="#1CA9DF" stroke="#1CA9DF" stroke-width="4"/>
<path d="M143.06 77.9398C140.861 75.7397 138.25 73.9944 135.376 72.8036C132.502 71.6129 129.422 71 126.311 71C123.201 71 120.12 71.6129 117.247 72.8036C114.373 73.9944 111.762 75.7397 109.563 77.9398L104.999 82.5038L100.435 77.9398C95.9929 73.4978 89.9682 71.0023 83.6862 71.0023C77.4043 71.0023 71.3796 73.4978 66.9375 77.9398C62.4955 82.3819 60 88.4066 60 94.6885C60 100.971 62.4955 106.995 66.9375 111.437L71.5014 116.001L104.999 149.499L138.496 116.001L143.06 111.437C145.26 109.238 147.006 106.627 148.196 103.753C149.387 100.88 150 97.7993 150 94.6885C150 91.5778 149.387 88.4976 148.196 85.6238C147.006 82.75 145.26 80.1389 143.06 77.9398V77.9398Z" stroke="white" stroke-width="6" stroke-linecap="round" stroke-linejoin="round"/>
</svg>
