<svg width="210" height="210" viewBox="0 0 210 210" fill="none" xmlns="http://www.w3.org/2000/svg">
<circle cx="105" cy="105" r="103" fill="#1CA9DF" stroke="#1CA9DF" stroke-width="4"/>
<path d="M146.911 90.0477C145.567 87.9677 143.165 86.7778 140.313 86.7778H131.033L132.387 70.5996C132.472 69.6766 132.026 68.7602 131.403 68.0746C130.78 67.389 129.764 67 128.84 67H105.386H83.1612C82.2368 67 81.2174 67.389 80.5978 68.0746C79.9783 68.7602 79.5292 69.6733 79.6144 70.5996L80.9682 86.7778H71.6883C68.8397 86.7778 66.4337 87.9677 65.0897 90.0477C63.7457 92.1244 63.6408 94.8174 64.7979 97.4347L72.5832 115.057C74.5631 119.533 79.9291 123.037 84.8002 123.037H89.1632C92.982 128.051 98.83 131.574 102.108 132.593V149.407H88.0782C86.2687 149.407 84.8002 150.881 84.8002 152.704C84.8002 154.527 86.2687 156 88.0782 156H105.386H123.923C125.732 156 127.201 154.527 127.201 152.704C127.201 150.881 125.732 149.407 123.923 149.407H108.664V132.593C111.942 131.574 119.019 129.63 122.838 123.037H127.201C132.072 123.037 137.438 119.533 139.418 115.057L147.203 97.4347C148.36 94.8174 148.252 92.1244 146.911 90.0477ZM84.8002 116.444C82.4827 116.444 79.5161 114.506 78.5753 112.38L70.7901 94.7581C70.4787 94.0593 70.5541 93.6934 70.5869 93.6407C70.6229 93.5846 70.9278 93.3704 71.6883 93.3704H81.5222L82.7088 107.541C83.1546 110.679 84.0397 113.679 85.2657 116.444H84.8002ZM122.785 106.77C121.281 117.374 111.942 126.333 105.386 126.333C98.83 126.333 90.1073 117.374 88.5994 106.77L86.7539 73.5926H105.386H125.247L122.785 106.77ZM141.211 94.7581L133.426 112.38C132.485 114.506 129.518 116.444 127.201 116.444H126.739C127.965 113.679 128.85 110.679 129.296 107.541L130.482 93.3704H140.316C141.077 93.3704 141.381 93.5846 141.414 93.6407C141.447 93.6934 141.522 94.0593 141.211 94.7581Z" fill="white"/>
</svg>
