<svg width="210" height="210" viewBox="0 0 210 210" fill="none" xmlns="http://www.w3.org/2000/svg">
<circle cx="105" cy="105" r="103" fill="#1CA9DF" stroke="#1CA9DF" stroke-width="4"/>
<path d="M82.0674 81.3861H86.4656H120.268V86.4039C120.268 94.2151 113.913 100.57 106.102 100.57H105.766C99.1847 100.57 93.5194 96.1068 91.9895 89.7171C91.6684 88.3768 90.3211 87.5509 88.9811 87.8713C87.6408 88.1924 86.8143 89.539 87.1354 90.8797C89.2054 99.524 96.8668 105.561 105.766 105.561H106.102C116.666 105.561 125.259 96.9672 125.259 86.4043V81.3865H125.403H129.801C131.179 81.3865 132.296 80.2691 132.296 78.8909C132.296 77.5127 131.179 76.3953 129.801 76.3953H127.898V70.1018C127.898 61.8281 123.258 54.6189 116.444 50.9364V46.4956C116.444 45.1174 115.326 44 113.948 44C112.57 44 111.453 45.1174 111.453 46.4956V48.9935C109.748 48.5633 107.965 48.3323 106.129 48.3323H105.739C103.903 48.3323 102.12 48.5633 100.416 48.9935V46.4956C100.416 45.1174 99.2982 44 97.92 44C96.5417 44 95.4244 45.1174 95.4244 46.4956V50.9364C88.6101 54.6185 83.97 61.8278 83.97 70.1018V76.395H82.0674C80.6891 76.395 79.5718 77.5123 79.5718 78.8906C79.5718 80.2688 80.6891 81.3861 82.0674 81.3861ZM88.9612 70.1018C88.9612 64.7376 91.4947 59.9567 95.4244 56.8832V57.8608C95.4244 59.239 96.5417 60.3564 97.92 60.3564C99.2982 60.3564 100.416 59.239 100.416 57.8608V54.194C102.09 53.6323 103.878 53.3232 105.739 53.3232H106.129C107.989 53.3232 109.779 53.6323 111.453 54.194V57.8608C111.453 59.239 112.57 60.3564 113.948 60.3564C115.326 60.3564 116.444 59.239 116.444 57.8608V56.8832C120.374 59.9567 122.907 64.7373 122.907 70.1018V76.395H88.9612V70.1018Z" fill="white"/>
<path d="M130.688 109.751H129.8H80.1996H79.3125C68.6637 109.751 60 118.415 60 129.064V149.406C60 150.785 61.1174 151.902 62.4956 151.902H80.1996H129.8H147.504C148.883 151.902 150 150.785 150 149.406V129.064C150 118.415 141.336 109.751 130.688 109.751ZM64.9912 129.064C64.9912 121.167 71.4158 114.742 79.3125 114.742H80.1996H87.0674V133.01C87.0674 134.389 88.1848 135.506 89.563 135.506H120.437C121.816 135.506 122.933 134.389 122.933 133.01V121.132C122.933 119.754 121.816 118.636 120.437 118.636C119.059 118.636 117.942 119.754 117.942 121.132V130.515H92.0586V114.742H127.305V146.91H82.6952V126.456C82.6952 125.078 81.5778 123.96 80.1996 123.96C78.8213 123.96 77.704 125.078 77.704 126.456V146.91H64.9912V129.064ZM145.009 146.91H132.296V114.832C139.438 115.634 145.009 121.71 145.009 129.063V146.91Z" fill="white"/>
<path d="M89.5635 143.135H120.438C121.816 143.135 122.933 142.017 122.933 140.639C122.933 139.261 121.816 138.144 120.438 138.144H89.5635C88.1852 138.144 87.0679 139.261 87.0679 140.639C87.0679 142.017 88.1852 143.135 89.5635 143.135Z" fill="white"/>
</svg>
