<!-- Generator: Adobe Illustrator 22.0.1, SVG Export Plug-In  -->
<svg version="1.1"
	 xmlns="http://www.w3.org/2000/svg" xmlns:xlink="http://www.w3.org/1999/xlink" xmlns:a="http://ns.adobe.com/AdobeSVGViewerExtensions/3.0/"
	 x="0px" y="0px" width="66.1px" height="69.3px" viewBox="0 0 66.1 69.3" style="enable-background:new 0 0 66.1 69.3;"
	 xml:space="preserve">
<style type="text/css">
	.st0{fill:#fff;}
</style>
<defs>
</defs>
<g>
	<path class="st0" d="M18.3,14.8c-2,0-3.6,1.6-3.6,3.6v47.3c0,2,1.6,3.6,3.6,3.6c2,0,3.6-1.6,3.6-3.6V18.4
		C22,16.4,20.4,14.8,18.3,14.8"/>
	<path class="st0" d="M62.7,0c-0.1,0-0.2,0-0.3,0c0,0,0,0,0,0c0.8,0,0.8,0,0,0H47.8c-2,0-3.7,1.6-3.7,3.7v47.2c0,2,1.7,3.8,3.7,3.7
		c2,0,3.6-1.7,3.6-3.6V7.3c0,0,0,0,0,0h7.4c0,0,0,0,0,0v43.4c0,0.1,0,0.1,0,0.2c0,0,0,0.1,0,0.1c0,3.2-1.3,6.1-3.7,8.2
		c-1.9,1.7-4.3,2.7-6.8,2.8c-3.2,0.2-6.2-1-8.4-3.2c-2.1-2.1-3.2-4.9-3.2-7.8c0-0.1,0-0.2,0-0.4h0V17.9h0c-0.1-2.4-0.6-4.7-1.5-6.9
		c-0.9-2.2-2.3-4.1-3.9-5.7c-1.7-1.7-3.6-3-5.8-3.9c-2.2-0.9-4.6-1.4-7.1-1.4c-2.5,0-4.9,0.5-7.1,1.4C9,2.4,7.1,3.8,5.4,5.5
		c-1.7,1.7-3,3.6-3.9,5.8c-0.8,2-1.3,4.1-1.4,6.3c0,0.1,0,0.3,0,0.4v47.6c0,2,1.7,3.8,3.7,3.7c2,0,3.6-1.7,3.6-3.6V18.8
		c0-0.1,0-0.1,0-0.2c0,0,0,0,0,0c0-2.7,0.9-5.4,2.7-7.4c2.2-2.6,5.4-3.9,8.8-3.8c2.5,0.1,5,1.1,6.9,2.7c2.4,2.1,3.7,5,3.8,8.1
		c0,0,0,0,0,0v32.3h0c0,0.1,0,0.2,0,0.4c0,2.5,0.5,4.9,1.4,7.1c0.9,2.2,2.2,4.1,3.9,5.8c1.7,1.7,3.6,3,5.8,3.9
		c2.3,1,4.7,1.4,7.1,1.4c2.5,0,4.9-0.5,7.1-1.4c2.2-0.9,4.1-2.2,5.8-3.9c1.7-1.7,3-3.6,3.9-5.8c0.9-2,1.3-4.1,1.4-6.3
		c0-0.1,0-0.3,0-0.4V3.6C66.1,1.7,64.6,0.1,62.7,0"/>
</g>
</svg>
